<svg width="332" height="391" viewBox="0 0 332 391" fill="none" xmlns="http://www.w3.org/2000/svg">
<path d="M312.884 0.577544L100.884 60.5775C94.439 62.4235 90 68.3115 90 75.0065V278.351C81.14 273.184 70.977 270.007 60 270.007C26.909 270.007 0 296.916 0 330.007C0 363.098 26.909 390.007 60 390.007C93.091 390.007 120 363.098 120 330.007C120 326.587 120 146.327 120 146.327L302 94.8976V218.351C293.14 213.184 282.977 210.007 272 210.007C238.909 210.007 212 236.916 212 270.007C212 303.098 238.909 330.007 272 330.007C305.091 330.007 332 303.098 332 270.007C332 266.587 332 15.0065 332 15.0065C332 5.08554 322.51 -2.14146 312.884 0.577544Z" fill="white"/>
</svg>
