<svg width="240" height="362" viewBox="0 0 240 362" fill="none" xmlns="http://www.w3.org/2000/svg">
<path d="M209.297 106.467C182.256 86.6484 154.512 62.2214 134.766 32.6024L117.48 6.67441C113.818 1.18141 106.992 -1.26459 100.649 0.639414C94.321 2.55841 90 8.38841 90 14.9954V250.339C81.14 245.172 70.977 241.995 60 241.995C26.909 241.995 0 268.904 0 301.995C0 335.086 26.909 361.994 60 361.994C93.091 361.994 120 335.085 120 301.994V64.2464C141.196 91.0384 167.71 113.176 191.558 130.666C203.276 139.25 210 152.493 210 166.994C210 191.808 189.814 211.994 165 211.994C156.709 211.994 150 218.703 150 226.994C150 235.285 156.709 241.994 165 241.994C206.353 241.994 240 208.347 240 166.994C240 143.19 228.53 120.573 209.297 106.467Z" fill="white"/>
</svg>
